<svg xmlns="http://www.w3.org/2000/svg" width="13.004" height="9.333" viewBox="0 0 13.004 9.333">
  <g id="Path_45" data-name="Path 45" transform="translate(13.004 9.333) rotate(180)" fill="#143d6d">
    <path d="M 12.00181674957275 8.833330154418945 L 1.001816749572754 8.833330154418945 C 0.8083167672157288 8.833330154418945 0.6411367654800415 8.730010032653809 0.5545967221260071 8.556940078735352 C 0.4680667519569397 8.383870124816895 0.4857167601585388 8.188130378723145 0.6018167734146118 8.033329963684082 L 6.101816654205322 0.6999999284744263 C 6.197146892547607 0.5728998780250549 6.342936515808105 0.4999999105930328 6.501816749572754 0.4999999105930328 C 6.660696983337402 0.4999999105930328 6.8064866065979 0.5728998780250549 6.901816844940186 0.6999999284744263 L 12.40181636810303 8.033329963684082 C 12.51791667938232 8.188130378723145 12.53556632995605 8.383870124816895 12.44903659820557 8.556940078735352 C 12.3624963760376 8.730010032653809 12.19531631469727 8.833330154418945 12.00181674957275 8.833330154418945 Z" stroke="none"/>
    <path d="M 6.501816749572754 1 L 1.001816749572754 8.333329200744629 C 1.00181770324707 8.333329200744629 1.00181770324707 8.333330154418945 1.001816749572754 8.333330154418945 L 12.00180912017822 8.333330154418945 C 12.00181007385254 8.333328247070312 12.00181102752686 8.33332633972168 12.00181674957275 8.333330154418945 L 6.50404691696167 1.000229835510254 C 6.50382661819458 1.000160217285156 6.502986907958984 1 6.501816749572754 1 M 6.501816749572754 2.86102294921875e-06 C 6.801816940307617 2.86102294921875e-06 7.101816654205322 0.1333351135253906 7.301816940307617 0.3999996185302734 L 12.80181694030762 7.733329772949219 C 13.29624652862549 8.392569541931152 12.82585716247559 9.333330154418945 12.00181674957275 9.333330154418945 L 1.001816749572754 9.333330154418945 C 0.1777667999267578 9.333330154418945 -0.2926130294799805 8.392569541931152 0.2018165588378906 7.733329772949219 L 5.701816558837891 0.3999996185302734 C 5.901816844940186 0.1333351135253906 6.201816558837891 2.86102294921875e-06 6.501816749572754 2.86102294921875e-06 Z" stroke="none" fill="#143d6d"/>
  </g>
</svg>
