<svg xmlns="http://www.w3.org/2000/svg" width="256.208" height="96.703" viewBox="0 0 256.208 96.703">
  <g id="Group_24" data-name="Group 24" transform="translate(-137 -20)">
    <g id="Layer_1" data-name="Layer 1" transform="translate(173.231 32.062)">
      <path id="Path_16" data-name="Path 16" d="M506.16,11.274h16.611a56.04,56.04,0,0,0-11.012-.69c-1.79.014-3.633.24-5.442.341a.618.618,0,0,1-.156.348Z" transform="translate(-384.539 -8.034)" fill="#707070"/>
      <path id="Path_17" data-name="Path 17" d="M664.34,81.044h16.611a56.03,56.03,0,0,0-11.012-.69c-1.79.014-3.631.24-5.442.339A.611.611,0,0,1,664.34,81.044Z" transform="translate(-504.712 -61.04)" fill="#707070"/>
      <path id="Path_18" data-name="Path 18" d="M755.34,103.384h22.985a78.345,78.345,0,0,0-15.239-.961c-2.477.022-5.024.324-7.528.481A.874.874,0,0,1,755.34,103.384Z" transform="translate(-573.846 -77.806)" fill="#707070"/>
      <path id="Path_19" data-name="Path 19" d="M132.339,11.435c3.376,2.463,9.049,2.537,13.064-.555,5.666-4.361,11.8-1.442,17.665-2.184-4.325,2.081-10.092-.269-13.384,4.921,2.792,1.3,5.94,1.788,7.79,4.649-11.834-5.027-24.235-4.092-36.631-3.686,1.617-1.014,4.565-.548,4.806-2.042.406-2.391-2.557-2.958-4.26-3.967-8.266-4.911-17.54-6.264-26.9-6.19C79,2.5,64.455,6.875,50.473,13.624l9.443,1.963c-1.723,1.045-3.14.754-4.481.658a140.315,140.315,0,0,0-45.413,4.527c-2.576.663-5.219,1.091-7.593,2.35-.781.423-1.776,1.081-2.263.125-.663-1.3.793-1.031,1.471-1.384,10.791-5.584,22.5-7.478,34.461-7.905A42.012,42.012,0,0,0,53.549,9.813,94.676,94.676,0,0,1,97.107.015a82.221,82.221,0,0,1,19.124,2.54,77.015,77.015,0,0,1,16.108,8.881Z" transform="translate(0.003 0.003)" fill="#ffaf19"/>
      <path id="Path_20" data-name="Path 20" d="M133.91,125.971c2.242-4.037,9.131-6.769,15.445-6.132,6.61.666,11.274,4.4,12.156,9.746-.279,0-.774.043-.81-.036-4.236-9.08-14.782-9.585-23.968-4.854-.889.459-1.848.831-2.775,1.242Z" transform="translate(-101.733 -90.973)" fill="#ffaf19"/>
      <path id="Path_21" data-name="Path 21" d="M276.66,125.971c2.23-4.037,9.071-6.769,15.354-6.132,6.572.666,11.209,4.4,12.086,9.746-.279,0-.767.043-.8-.036-4.21-9.08-14.7-9.585-23.829-4.854-.882.459-1.836.831-2.758,1.242Z" transform="translate(-210.183 -90.973)" fill="#ffaf19"/>
      <path id="Path_22" data-name="Path 22" d="M758.87,139.7c11.925-.939,23.973-1.42,33.43-.279C782.944,141.288,770.963,139.84,758.87,139.7Z" transform="translate(-576.528 -105.416)" fill="#707070"/>
      <path id="Path_23" data-name="Path 23" d="M343.655,71.807H324.57V71.18h19.158C343.7,71.389,343.672,71.6,343.655,71.807Z" transform="translate(-246.581 -54.076)" fill="#707070"/>
      <path id="Path_24" data-name="Path 24" d="M9.1,119.363v13.4H.34V93.86H14.065q14.7,0,14.7,12.4a11.894,11.894,0,0,1-4.219,9.481q-4.219,3.621-11.269,3.626Zm0-18.771v12.125h3.443q7,0,7-6.13,0-5.993-7-6.007Z" transform="translate(-0.257 -71.307)" fill="#143d6d"/>
      <path id="Path_25" data-name="Path 25" d="M139.973,166.429q-6.946,0-10.918-3.893t-3.974-10.572q0-6.886,4.123-10.781t11.149-3.893q6.918,0,10.849,3.893a13.848,13.848,0,0,1,3.933,10.294q0,6.915-4.054,10.933T139.973,166.429Zm.216-22.567a5.713,5.713,0,0,0-4.719,2.088,9.227,9.227,0,0,0-1.682,5.913q0,8.006,6.456,8,6.156,0,6.156-8.22,0-7.785-6.2-7.785Z" transform="translate(-95.025 -104.301)" fill="#143d6d"/>
      <path id="Path_26" data-name="Path 26" d="M281.31,166.451q-6.942,0-10.916-3.893t-3.974-10.572q0-6.886,4.123-10.781T281.7,137.32q6.915,0,10.851,3.893a13.823,13.823,0,0,1,3.933,10.294q0,6.915-4.056,10.933T281.31,166.451Zm.219-22.567a5.72,5.72,0,0,0-4.721,2.088,9.208,9.208,0,0,0-1.682,5.913q0,8.006,6.456,8,6.156,0,6.158-8.22,0-7.785-6.211-7.785Z" transform="translate(-202.404 -104.324)" fill="#143d6d"/>
      <path id="Path_27" data-name="Path 27" d="M441.3,132.757H418.14V93.86H426.9v31.791h14.4Z" transform="translate(-317.668 -71.307)" fill="#143d6d"/>
      <path id="Path_28" data-name="Path 28" d="M538.851,132.757H530.09V93.86h8.761Z" transform="translate(-402.719 -71.307)" fill="#143d6d"/>
      <path id="Path_29" data-name="Path 29" d="M627.321,115.913q0,17.524-16.339,17.521-15.844,0-15.842-17.115V93.86h8.789v22.567q0,9.438,7.377,9.441,7.24,0,7.242-9.114V93.86h8.761Z" transform="translate(-452.139 -71.307)" fill="#143d6d"/>
    </g>
  </g>
</svg>
